<svg xmlns="http://www.w3.org/2000/svg" version="1.1" xmlns:xlink="http://www.w3.org/1999/xlink" xmlns:svgjs="http://svgjs.com/svgjs" width="1440" height="768" preserveAspectRatio="none" viewBox="0 0 1440 768"><g mask="url(&quot;#SvgjsMask1024&quot;)" fill="none"><path d="M84.293,210.806C128.301,212.761,168.662,183.753,188.056,144.201C205.549,108.527,189.909,69.182,170.827,34.332C150.649,-2.519,126.182,-42.055,84.293,-45.3C37.9,-48.894,-8.535,-22.912,-29.061,18.848C-47.865,57.104,-26.322,98.936,-4.647,135.642C16.507,171.464,42.732,208.96,84.293,210.806" fill="rgba(82, 95, 225, 0.4)" class="triangle-float3"></path><path d="M52.129,127.222C80.446,127.169,108.384,117.255,123.886,93.558C140.96,67.458,146.338,33.75,131.067,6.555C115.525,-21.123,83.845,-35.538,52.129,-34.226C22.534,-33.002,-1.704,-13.152,-16.255,12.647C-30.519,37.937,-34.974,68.895,-20.093,93.827C-5.524,118.237,23.702,127.275,52.129,127.222" fill="rgba(82, 95, 225, 0.4)" class="triangle-float3"></path><path d="M58.396,145.607C88.908,145.698,116.005,126.88,130.687,100.133C144.824,74.38,142.436,43.784,128.481,17.932C113.699,-9.453,89.516,-33.805,58.396,-33.794C27.291,-33.783,3.093,-9.433,-11.6,17.983C-25.393,43.72,-27.191,74.1,-13.149,99.702C1.455,126.329,28.027,145.516,58.396,145.607" fill="rgba(82, 95, 225, 0.4)" class="triangle-float3"></path><path d="M1398.235,242.117C1442.74,238.562,1479.384,210.235,1501.18,171.27C1522.4,133.334,1524.408,89.009,1505.872,49.691C1483.82,2.916,1449.874,-44.329,1398.235,-47.086C1343.123,-50.028,1296.094,-10.864,1268.663,37.026C1241.412,84.602,1232.946,144.006,1262.23,190.358C1289.999,234.311,1346.41,246.257,1398.235,242.117" fill="rgba(82, 95, 225, 0.4)" class="triangle-float2"></path><path d="M1422.448,297.299C1481.276,298.538,1536.724,269.928,1567.892,220.02C1601.067,166.897,1611.425,99.263,1579.928,45.128C1548.583,-8.747,1484.578,-34.946,1422.448,-29.961C1367.698,-25.568,1330.012,19.266,1303.396,67.313C1277.83,113.466,1262.991,167.253,1287.246,214.108C1313.318,264.475,1365.746,296.104,1422.448,297.299" fill="rgba(82, 95, 225, 0.4)" class="triangle-float3"></path><path d="M1360.027,175.206C1400.72,175.485,1444.491,169.316,1466.673,135.199C1490.552,98.471,1488.669,49.923,1465.76,12.582C1443.811,-23.195,1401.857,-42.097,1360.027,-38.633C1323.197,-35.583,1299.93,-3.735,1280.82,27.897C1260.728,61.154,1237.48,99.534,1255.881,133.756C1274.846,169.027,1319.982,174.932,1360.027,175.206" fill="rgba(82, 95, 225, 0.4)" class="triangle-float3"></path><path d="M75.97,784.423C111.348,784.557,146.672,772.014,165.463,742.039C185.399,710.237,186.521,669.876,168.376,637.019C149.621,603.058,114.733,578.393,75.97,579.984C39.334,581.488,13.434,611.936,-4.171,644.1C-20.914,674.691,-29.656,711.085,-12.361,741.367C5.05,771.853,40.863,784.29,75.97,784.423" fill="rgba(82, 95, 225, 0.4)" class="triangle-float1"></path><path d="M114.535,882.846C170.461,884.311,227.596,858.673,252.355,808.505C275.186,762.243,249.905,710.173,220.759,667.606C196.096,631.588,158.169,608.528,114.535,607.227C68.305,605.848,21.874,622.101,-3.264,660.924C-30.624,703.179,-34.921,757.132,-11.319,801.596C13.773,848.868,61.034,881.444,114.535,882.846" fill="rgba(82, 95, 225, 0.4)" class="triangle-float3"></path><path d="M22.915,710.112C48.278,711.323,71.113,694.436,82.858,671.923C93.801,650.947,90.203,625.744,77.261,605.939C65.509,587.955,44.396,579.826,22.915,580.195C2.142,580.551,-17.77,589.837,-28.294,607.75C-38.951,625.89,-37.283,647.82,-27.87,666.636C-17.184,687.996,-0.942,708.973,22.915,710.112" fill="rgba(82, 95, 225, 0.4)" class="triangle-float3"></path><path d="M1386.362,862.162C1434.443,858.864,1465.813,815.773,1487.243,772.606C1505.932,734.96,1508.082,692.538,1489.218,654.979C1468.002,612.737,1433.627,571.006,1386.362,571.748C1339.856,572.478,1312.63,618.089,1288.952,658.123C1264.626,699.253,1237.693,745.188,1258.28,788.311C1281.037,835.978,1333.665,865.777,1386.362,862.162" fill="rgba(82, 95, 225, 0.4)" class="triangle-float2"></path><path d="M1367.004,826.743C1411.304,826.99,1446.294,791.845,1466.118,752.227C1483.853,716.785,1479.541,675.793,1459.706,641.483C1439.893,607.211,1406.522,583.118,1367.004,580.787C1322.884,578.185,1275.112,590.916,1253.205,629.302C1231.432,667.453,1247.853,713.074,1269.789,751.132C1291.761,789.253,1323.005,826.497,1367.004,826.743" fill="rgba(82, 95, 225, 0.4)" class="triangle-float1"></path><path d="M1318.268,719.613C1345.101,719.189,1370.912,707.644,1384.751,684.652C1399.021,660.943,1399.5,631.32,1385.925,607.206C1372.091,582.632,1346.462,565.991,1318.268,566.552C1290.927,567.096,1268.908,586.194,1255.119,609.809C1241.188,633.665,1234.271,662.864,1248.044,686.812C1261.849,710.816,1290.58,720.05,1318.268,719.613" fill="rgba(82, 95, 225, 0.4)" class="triangle-float2"></path></g><defs><mask id="SvgjsMask1024"><rect width="1440" height="768" fill="#ffffff"></rect></mask><style>
            @keyframes float1 {
                0%{transform: translate(0, 0)}
                50%{transform: translate(-10px, 0)}
                100%{transform: translate(0, 0)}
            }

            .triangle-float1 {
                animation: float1 5s infinite;
            }

            @keyframes float2 {
                0%{transform: translate(0, 0)}
                50%{transform: translate(-5px, -5px)}
                100%{transform: translate(0, 0)}
            }

            .triangle-float2 {
                animation: float2 4s infinite;
            }

            @keyframes float3 {
                0%{transform: translate(0, 0)}
                50%{transform: translate(0, -10px)}
                100%{transform: translate(0, 0)}
            }

            .triangle-float3 {
                animation: float3 6s infinite;
            }
        </style></defs></svg>